<?xml version="1.0" encoding="UTF-8"?>
<svg enable-background="new 0 0 512 512" version="1.1" viewBox="0 0 512 512" xml:space="preserve" xmlns="http://www.w3.org/2000/svg">

	
		
			<path d="M298.667,298.667c-11.782,0-21.333,9.551-21.333,21.333v21.333H64V106.667h213.333v42.667     c0,11.782,9.551,21.333,21.333,21.333c11.782,0,21.333-9.551,21.333-21.333V42.667C320,19.109,300.891,0,277.333,0H64     C40.442,0,21.333,19.109,21.333,42.667v426.667C21.333,492.891,40.442,512,64,512h213.333C300.891,512,320,492.891,320,469.333     V320C320,308.218,310.449,298.667,298.667,298.667z M277.333,42.667V64H64V42.667H277.333z M64,469.333V384h213.333v85.333H64z"/>
			<path d="m170.67 405.33c-11.776 0-21.333 9.557-21.333 21.333s9.557 21.334 21.333 21.334 21.333-9.557 21.333-21.333-9.557-21.334-21.333-21.334z"/>
			<path d="m469.33 213.33h-268.5l27.582-27.582c8.331-8.331 8.331-21.839 0-30.17s-21.839-8.331-30.17 0l-64 64c-0.497 0.497-0.967 1.02-1.413 1.564-0.202 0.246-0.378 0.506-0.567 0.759-0.228 0.304-0.463 0.601-0.675 0.918-0.203 0.303-0.379 0.618-0.565 0.929-0.171 0.286-0.351 0.566-0.509 0.861-0.17 0.317-0.314 0.644-0.466 0.968-0.145 0.307-0.298 0.609-0.429 0.924-0.13 0.315-0.236 0.637-0.35 0.957-0.121 0.337-0.25 0.669-0.354 1.013-0.097 0.32-0.168 0.646-0.249 0.969-0.089 0.351-0.187 0.698-0.258 1.055-0.074 0.375-0.119 0.753-0.173 1.13-0.044 0.311-0.104 0.617-0.135 0.932-0.069 0.7-0.106 1.403-0.106 2.105v1e-3c0 0.702 0.037 1.405 0.106 2.104 0.031 0.316 0.09 0.622 0.135 0.933 0.054 0.377 0.098 0.755 0.172 1.13 0.071 0.358 0.169 0.705 0.258 1.056 0.081 0.323 0.152 0.648 0.249 0.968 0.104 0.345 0.234 0.678 0.355 1.015 0.115 0.319 0.22 0.641 0.35 0.956 0.131 0.315 0.284 0.618 0.43 0.925 0.152 0.323 0.296 0.65 0.466 0.967 0.158 0.295 0.338 0.575 0.509 0.862 0.185 0.311 0.361 0.625 0.564 0.928 0.212 0.317 0.448 0.615 0.676 0.92 0.189 0.252 0.364 0.511 0.566 0.757 0.446 0.544 0.916 1.067 1.413 1.564l64 64c8.331 8.331 21.839 8.331 30.17 0s8.331-21.839 0-30.17l-27.582-27.581h268.5c11.782 0 21.333-9.551 21.333-21.333s-9.552-21.334-21.334-21.334z"/>
		
	
















</svg>
